<svg width="108" height="108" viewBox="0 0 108 108" fill="none" xmlns="http://www.w3.org/2000/svg">
<g filter="url(#filter0_d_7_14)">
<circle cx="54" cy="50" r="50" fill="white"/>
<ellipse cx="54" cy="35" rx="21" ry="25" fill="#6481D2"/>
<path d="M52.5726 53.4543C53.3566 52.6555 54.6434 52.6555 55.4274 53.4543L80.1068 78.5991C81.3487 79.8643 80.4523 82 78.6795 82H29.3205C27.5477 82 26.6513 79.8643 27.8931 78.5991L52.5726 53.4543Z" fill="#6481D2"/>
<path d="M55.4412 67.5023C54.6544 68.32 53.3456 68.32 52.5588 67.5023L48.5986 63.3868C47.376 62.1161 48.2765 60 50.0398 60H57.9602C59.7235 60 60.624 62.1161 59.4014 63.3868L55.4412 67.5023Z" fill="white"/>
<path d="M55.7321 80C54.9623 81.3333 53.0377 81.3333 52.2679 80L50.5359 77C49.7661 75.6667 50.7283 74 52.2679 74H55.7321C57.2717 74 58.2339 75.6667 57.4641 77L55.7321 80Z" fill="white"/>
<path d="M52.2679 65C53.0377 63.6667 54.9623 63.6667 55.7321 65L57.4641 68C58.2339 69.3333 57.2717 71 55.7321 71H52.2679C50.7283 71 49.7661 69.3333 50.5359 68L52.2679 65Z" fill="white"/>
<rect x="50" y="68" width="8" height="9" rx="2" fill="white"/>
<circle cx="45.5" cy="36.5" r="4.5" fill="white"/>
<circle cx="62.5" cy="36.5" r="4.5" fill="white"/>
</g>
<defs>
<filter id="filter0_d_7_14" x="0" y="0" width="108" height="108" filterUnits="userSpaceOnUse" color-interpolation-filters="sRGB">
<feFlood flood-opacity="0" result="BackgroundImageFix"/>
<feColorMatrix in="SourceAlpha" type="matrix" values="0 0 0 0 0 0 0 0 0 0 0 0 0 0 0 0 0 0 127 0" result="hardAlpha"/>
<feOffset dy="4"/>
<feGaussianBlur stdDeviation="2"/>
<feComposite in2="hardAlpha" operator="out"/>
<feColorMatrix type="matrix" values="0 0 0 0 0 0 0 0 0 0 0 0 0 0 0 0 0 0 0.25 0"/>
<feBlend mode="normal" in2="BackgroundImageFix" result="effect1_dropShadow_7_14"/>
<feBlend mode="normal" in="SourceGraphic" in2="effect1_dropShadow_7_14" result="shape"/>
</filter>
</defs>
</svg>
